{"title":"Beneath The Darkness 2011 BRRip XviD - NoZGT","uid":7046357,"size":983902898,"categoryP":"video","categoryS":"hd___movies","magnet":"?xt=urn:btih:6a2631247dd940bf2db4db2d878f0d352dfc87a7&amp;dn=Beneath+The+Darkness+2011+BRRip+XviD+-+NoZGT&amp;tr=udp%3A%2F%2Ftracker.openbittorrent.com%3A80&amp;tr=udp%3A%2F%2Fopen.demonii.com%3A1337&amp;tr=udp%3A%2F%2Ftracker.coppersurfer.tk%3A6969&amp;tr=udp%3A%2F%2Fexodus.desync.com%3A6969","seeders":0,"leechers":0,"uploader":"MrTPB","files":4,"time":1329757362,"description":"Source: Beneath The Darkness 2011 BRRip\n\nCOVER:\n &lt;a href=&quot;\nhttp://images.net63.net/short_url/?IVPDK&quot; rel=&quot;nofollow&quot; target=&quot;_NEW&quot;&gt;\nhttp://images.net63.net/short_url/?IVPDK&lt;/a&gt;\n\nScreens:\n &lt;a href=&quot;\nhttp://images.net63.net/short_url/?MAMAS&quot; rel=&quot;nofollow&quot; target=&quot;_NEW&quot;&gt;\nhttp://images.net63.net/short_url/?MAMAS&lt;/a&gt;\n &lt;a href=&quot;\nhttp://images.net63.net/short_url/?OGRBQ&quot; rel=&quot;nofollow&quot; target=&quot;_NEW&quot;&gt;\nhttp://images.net63.net/short_url/?OGRBQ&lt;/a&gt;\n &lt;a href=&quot;\nhttp://images.net63.net/short_url/?IUUXV&quot; rel=&quot;nofollow&quot; target=&quot;_NEW&quot;&gt;\nhttp://images.net63.net/short_url/?IUUXV&lt;/a&gt;\n &lt;a href=&quot;\nhttp://images.net63.net/short_url/?RFZGD&quot; rel=&quot;nofollow&quot; target=&quot;_NEW&quot;&gt;\nhttp://images.net63.net/short_url/?RFZGD&lt;/a&gt;\n\nPlot:\nAfter watching their best friend get murdered, a group of teens struggle to expose a local hero as the vicious killer and keep from becoming his next victims\n\nFormat                           : AVI\nFormat/Info                      : Audio Video Interleave\nFile size                        : 921 MiB\nDuration                         : 1h 35mn\nOverall bit rate                 : 1 344 Kbps\nWriting library                  : VirtualDub build 33848/release\n\nVideo\nID                               : 0\nFormat                           : MPEG-4 Visual\nFormat profile                   : Advanced Simple@L5\nFormat settings, BVOP            : Yes\nFormat settings, QPel            : No\nFormat settings, GMC             : No warppoints\nFormat settings, Matrix          : Default (H.263)\nMuxing mode                      : Packed bitstream\nCodec ID                         : XVID\nCodec ID/Hint                    : XviD\nDuration                         : 1h 35mn\nBit rate                         : 1 142 Kbps\nWidth                            : 720 pixels\nHeight                           : 304 pixels\nDisplay aspect ratio             : 2.35:1\nFrame rate                       : 23.976 fps\nColor space                      : YUV\nChroma subsampling               : 4:2:0\nBit depth                        : 8 bits\nScan type                        : Progressive\nBits/(Pixel*Frame)               : 0.218\nStream size                      : 783 MiB (85%)\nWriting library                  : XviD 1.2.1 (UTC 2008-12-04)\n\nAudio\nID                               : 1\nFormat                           : MPEG Audio\nFormat version                   : Version 1\nFormat profile                   : Layer 3\nMode                             : Joint stereo\nMode extension                   : MS Stereo\nCodec ID                         : 55\nCodec ID/Hint                    : MP3\nDuration                         : 1h 35mn\nBit rate mode                    : Constant\nBit rate                         : 192 Kbps\nChannel(s)                       : 2 channels\nSampling rate                    : 48.0 KHz\nVideo delay                      : 16ms\nStream size                      : 132 MiB (14%)\nAlignment                        : Split accross interleaves\nInterleave, duration             : 42 ms (1.00 video frame)\nInterleave, preload duration     : 500 ms\nWriting library                  : LAME3.98.2\n\nEnjoy!\nNoZGT\n","torrent":{"xt":"urn:btih:6a2631247dd940bf2db4db2d878f0d352dfc87a7","amp;dn":"Beneath+The+Darkness+2011+BRRip+XviD+-+NoZGT","amp;tr":["udp%3A%2F%2Ftracker.openbittorrent.com%3A80","udp%3A%2F%2Fopen.demonii.com%3A1337","udp%3A%2F%2Ftracker.coppersurfer.tk%3A6969","udp%3A%2F%2Fexodus.desync.com%3A6969"],"infoHash":"6a2631247dd940bf2db4db2d878f0d352dfc87a7","infoHashBuffer":{"type":"Buffer","data":[106,38,49,36,125,217,64,191,45,180,219,45,135,143,13,53,45,252,135,167]},"announce":[],"urlList":[]}}